<svg width="14" height="14" viewBox="0 0 14 14" fill="none" xmlns="http://www.w3.org/2000/svg">
<path d="M7.70622 13.6033L13.7812 7.52832C14.075 7.23767 14.075 6.7627 13.7812 6.46893L7.70622 0.397079C7.4156 0.103317 6.9406 0.103317 6.64687 0.397079L5.95311 1.09083C5.65312 1.38771 5.65935 1.87208 5.96562 2.1627L9.73124 5.75019H0.749998C0.33438 5.75019 0 6.08457 0 6.50018V7.50018C0 7.9158 0.33438 8.25018 0.749998 8.25018H9.73124L5.96562 11.8377C5.66249 12.1283 5.65624 12.6127 5.95311 12.9095L6.64687 13.6033C6.93748 13.897 7.41249 13.897 7.70622 13.6033Z" fill="white"/>
</svg>
