<svg xmlns="http://www.w3.org/2000/svg" width="14" height="14" viewBox="0 0 14 14" fill="none">
<path d="M7.35309 13.6033L8.04684 12.9095C8.34683 12.6127 8.3406 12.1283 8.03433 11.8377L4.26871 8.25018H13.25C13.6656 8.25018 14 7.9158 14 7.50018V6.50018C14 6.08457 13.6656 5.75019 13.25 5.75019H4.26871L8.03433 2.1627C8.33746 1.87208 8.34371 1.38771 8.04684 1.09083L7.35309 0.397079C7.06247 0.103317 6.58746 0.103317 6.29373 0.397079L0.218734 6.47205C-0.0750273 6.7627 -0.0750273 7.23767 0.218734 7.53143L6.29373 13.6033C6.58435 13.897 7.05935 13.897 7.35309 13.6033Z" fill="#5A7184"/>
</svg>
