<svg width="16" height="12" viewBox="0 0 16 12" fill="none" xmlns="http://www.w3.org/2000/svg">
<path fill-rule="evenodd" clip-rule="evenodd" d="M9.98243 6.94261C9.42044 7.37692 8.60077 8.01036 7.99998 7.99998C7.39919 8.01036 6.57952 7.37692 6.01753 6.94261C5.90135 6.85283 5.79617 6.77155 5.70622 6.70622C1.86284 3.91707 1.31045 3.4848 0.48889 2.84189C0.424024 2.79112 0.35748 2.73904 0.287505 2.68439C0.106262 2.54062 0 2.32501 0 2.09375V1.5C0 0.671875 0.671873 0 1.5 0H14.5C15.3281 0 16 0.671875 16 1.5V2.09375C16 2.32501 15.8937 2.54376 15.7125 2.68439C15.6589 2.72636 15.6074 2.76682 15.5571 2.8063C14.7089 3.47237 14.2085 3.86531 10.2937 6.70622C10.2038 6.77155 10.0986 6.85283 9.98243 6.94261ZM16 10.4999C16 11.328 15.3281 11.9999 14.5 11.9999H1.5C0.671873 11.9999 0 11.328 0 10.4999V4.11238C0 3.95613 0.178131 3.86864 0.30313 3.96553C0.515246 4.13029 0.748311 4.30856 1.05885 4.54144L1.25492 4.68805C1.97687 5.22643 3.09033 6.04195 5.11873 7.51552C5.21869 7.58847 5.32906 7.67363 5.44826 7.76561C6.11534 8.28033 7.05878 9.0083 7.99998 9.00301C8.94555 9.01096 9.90458 8.2691 10.5612 7.76115C10.6793 7.6698 10.7876 7.58601 10.8843 7.51552C14.0718 5.19991 14.9969 4.50615 15.6968 3.96239C15.8187 3.86552 16 3.95613 16 4.10927V10.4999Z" fill="#183B56"/>
</svg>
