<svg width="36" height="36" viewBox="0 0 36 36" fill="none" xmlns="http://www.w3.org/2000/svg">
<g id="ic_Menu">
<path id="Shape" fill-rule="evenodd" clip-rule="evenodd" d="M3.13514 7.8H32.8649C33.7679 7.8 34.5 7.06127 34.5 6.15C34.5 5.23873 33.7679 4.5 32.8649 4.5H3.13514C2.23207 4.5 1.5 5.23873 1.5 6.15C1.5 7.06127 2.23207 7.8 3.13514 7.8ZM3.13514 19.4225H32.8649C33.7679 19.4225 34.5 18.6838 34.5 17.7725C34.5 16.8613 33.7679 16.1225 32.8649 16.1225H3.13514C2.23207 16.1225 1.5 16.8613 1.5 17.7725C1.5 18.6838 2.23207 19.4225 3.13514 19.4225ZM32.8649 31.0451H3.13514C2.23207 31.0451 1.5 30.3064 1.5 29.3951C1.5 28.4838 2.23207 27.7451 3.13514 27.7451H32.8649C33.7679 27.7451 34.5 28.4838 34.5 29.3951C34.5 30.3064 33.7679 31.0451 32.8649 31.0451Z" fill="#3A4C66"/>
</g>
</svg>
