<svg width="79" height="24" viewBox="0 0 79 24" fill="none" xmlns="http://www.w3.org/2000/svg">
<g clip-path="url(#clip0_0_45716)">
<path fill-rule="evenodd" clip-rule="evenodd" d="M18.96 0.830357V18.3884C18.96 18.6205 19.0378 18.8147 19.1934 18.971C19.349 19.1272 19.5424 19.2054 19.7735 19.2054H22.761C22.9921 19.2054 23.1855 19.1272 23.3411 18.971C23.4967 18.8147 23.5745 18.6205 23.5745 18.3884V10.3337C24.846 9.05695 26.0374 7.91518 27.1488 7.91518C28.847 7.91518 29.6961 8.56695 29.6961 10.7009V18.3884C29.6961 18.6205 29.7739 18.8147 29.9295 18.971C30.0851 19.1272 30.2785 19.2054 30.5096 19.2054H33.4837C33.7238 19.2054 33.9216 19.1272 34.0772 18.971C34.2328 18.8147 34.3106 18.6205 34.3106 18.3884V10.7009C34.3106 8.52231 33.7682 6.90402 32.6835 5.84598C31.5988 4.78794 30.1918 4.25893 28.4624 4.25893C26.7331 4.25893 25.1038 4.90624 23.5745 6.20089V0.830357C23.5745 0.589284 23.4967 0.390626 23.3411 0.234375C23.1855 0.0781242 22.9921 0 22.761 0H19.7735C19.5424 0 19.349 0.0781242 19.1934 0.234375C19.0378 0.390626 18.96 0.589284 18.96 0.830357ZM2.98257 17.5179C1.61332 16.2143 0.928711 14.3371 0.928711 11.8862C0.928711 9.43526 1.61777 7.55135 2.99591 6.23438C4.37405 4.9174 6.28563 4.25893 8.73071 4.25893C11.1758 4.25893 13.0829 4.89955 14.4522 6.1808C15.8214 7.46206 16.506 9.2991 16.506 11.692V12.4554C16.506 12.6964 16.4282 12.8951 16.2726 13.0513C16.117 13.2076 15.9192 13.2857 15.6792 13.2857H5.63658C5.7255 14.3839 6.03891 15.183 6.57683 15.683C7.11474 16.183 7.97496 16.433 9.15749 16.433C10.34 16.433 11.1491 16.1652 11.5848 15.6295C12.0204 15.0937 12.8552 15.1757 14.1428 15.3563C15.4304 15.5369 15.7208 16.2179 15.6792 16.433C15.2707 18.5424 13.1307 19.4813 8.71737 19.4733C6.2634 19.4733 4.35182 18.8214 2.98257 17.5179ZM5.60991 10.4598H11.8115C11.7226 8.35267 10.6934 7.29911 8.72404 7.29911C6.75464 7.29911 5.71661 8.35267 5.60991 10.4598ZM40.1654 20.5982L41.9126 20.8259C42.9738 20.8259 43.7642 20.1637 44.2839 18.8394C44.2933 18.8155 44.2173 18.8031 44.0764 18.7802C43.5391 18.6928 42.058 18.4518 40.7656 16.8328C39.2842 14.9771 39.0641 14.2607 38.4902 12.393L38.49 12.3923C38.432 12.2034 38.3703 12.0028 38.3034 11.788L36.3162 5.31926C36.2895 5.24783 36.2762 5.16524 36.2762 5.07149C36.2762 4.97774 36.3318 4.8639 36.4429 4.72997C36.5541 4.59604 36.7208 4.52462 36.943 4.51569L39.5653 4.52679C39.8231 4.52679 40.0699 4.61384 40.3055 4.78795C40.5411 4.96205 40.6945 5.17857 40.7656 5.4375L42.5127 11.1161C42.9484 12.5089 43.3907 13.4732 43.8397 14.0089C44.2887 14.5446 44.82 14.8125 45.4335 14.8125L48.0875 5.4375C48.1586 5.17857 48.2986 4.96205 48.5076 4.78795C48.7165 4.61384 48.9499 4.52679 49.2078 4.52679H52.0218C52.2441 4.52679 52.4086 4.59821 52.5153 4.74107C52.622 4.88393 52.6753 5.00223 52.6753 5.09598C52.6753 5.18973 52.6664 5.26786 52.6486 5.33036L49.1544 17.8393C48.532 20.0536 47.7607 21.6339 46.8405 22.5804C45.9202 23.5268 44.7355 24 43.2862 24L42.7292 23.9971C41.5713 23.9848 40.7323 23.9321 40.2121 23.8393C39.612 23.7321 39.2363 23.6004 39.0852 23.4442C38.934 23.2879 38.8584 23.1071 38.8584 22.9018V21.4286C38.8584 21.1875 38.934 20.9888 39.0852 20.8326C39.2363 20.6763 39.4319 20.5982 39.672 20.5982H40.1654ZM54.1957 18.2411C53.0221 17.4196 52.4352 16.2589 52.4352 14.7589C52.4352 13.2589 53.0243 12.1071 54.2024 11.3036C55.3805 10.5 56.8986 10.0982 58.7569 10.0982H63.1713C63.1713 9.05357 62.9535 8.3259 62.5178 7.91518C62.0822 7.50446 61.3198 7.29911 60.2306 7.29911C59.214 7.29911 58.4802 7.53438 58.029 8.00494L57.9367 8.10938C57.4965 8.64956 56.1111 8.4659 54.8743 8.22764C53.6374 7.98939 53.5574 7.3584 53.6677 7.03003C54.2887 5.18262 56.6563 4.25893 60.7707 4.25893C62.8868 4.25893 64.585 4.73437 65.8654 5.68527C67.1457 6.63617 67.7859 8.10713 67.7859 10.0982V18.3884C67.7859 18.6295 67.7103 18.8259 67.5591 18.9777C67.408 19.1295 67.2124 19.2054 66.9723 19.2054H64.3983C64.1583 19.2054 63.9627 19.1272 63.8115 18.971C63.6603 18.8147 63.5848 18.6205 63.5848 18.3884V17.9732C62.18 18.9821 60.5596 19.4844 58.7235 19.4799C56.8875 19.4754 55.3782 19.0625 54.1957 18.2411ZM59.077 13.1384H63.1713V15.2277C61.8999 16.0313 60.5796 16.433 59.2103 16.433C58.5257 16.433 57.9967 16.2768 57.6232 15.9643C57.2498 15.6518 57.0631 15.2545 57.0631 14.7723C57.0631 14.2902 57.2431 13.8973 57.6032 13.5938C57.9633 13.2902 58.4546 13.1384 59.077 13.1384Z" fill="url(#paint0_linear_0_45716)"/>
<circle cx="74.6429" cy="8.57164" r="3.42857" fill="#1576D8"/>
</g>
<defs>
<linearGradient id="paint0_linear_0_45716" x1="0.928711" y1="0" x2="0.928711" y2="24" gradientUnits="userSpaceOnUse">
<stop stop-color="#254A72"/>
<stop offset="1" stop-color="#10243E"/>
</linearGradient>
<clipPath id="clip0_0_45716">
<rect width="77.1429" height="24" fill="white" transform="translate(0.928711)"/>
</clipPath>
</defs>
</svg>
