<svg width="64" height="64" viewBox="0 0 64 64" fill="none" xmlns="http://www.w3.org/2000/svg">
<g id="iconspace_Diamond">
<circle id="Shape" cx="32" cy="32" r="32" fill="#E6F0FC"/>
<path id="Shape_2" d="M15.1056 14.5528C15.275 14.214 15.6212 14 16 14H48C48.3788 14 48.725 14.214 48.8944 14.5528L52.8944 22.5528C53.0502 22.8644 53.0326 23.2346 52.848 23.53L32.848 55.53C32.4563 56.1567 31.5437 56.1567 31.152 55.53L11.152 23.53C10.9674 23.2346 10.9498 22.8644 11.1056 22.5528L15.1056 14.5528Z" fill="#154E84"/>
<path id="Shape_3" d="M16.6178 16L13.145 22.9456L31.9998 53.1132L50.8545 22.9456L47.3817 16L16.6178 16Z" fill="white"/>
<path id="Shape_4" fill-rule="evenodd" clip-rule="evenodd" d="M24 23L32 55L12 23H24Z" fill="white"/>
<path id="Shape_5" fill-rule="evenodd" clip-rule="evenodd" d="M40 23L32 55L52 23H40Z" fill="white"/>
<path id="Shape_6" fill-rule="evenodd" clip-rule="evenodd" d="M24 23L32 54L15 23L24 23Z" fill="#52ABE2"/>
<path id="Shape_7" fill-rule="evenodd" clip-rule="evenodd" d="M40 23L32 54L49 23L40 23Z" fill="#52ABE2"/>
<path id="Shape_8" fill-rule="evenodd" clip-rule="evenodd" d="M24.9703 22.7575C24.859 22.3123 24.459 22 24.0001 22H12.0001C11.2147 22 10.7359 22.864 11.1521 23.53L31.1521 55.53C31.7558 56.4959 33.2465 55.8625 32.9703 54.7575L24.9703 22.7575ZM13.8044 24H23.2194L29.496 49.1066L13.8044 24Z" fill="#154E84"/>
<path id="Shape_9" fill-rule="evenodd" clip-rule="evenodd" d="M52.0025 22H40.0025C39.5436 22 39.1436 22.3123 39.0323 22.7575L31.0323 54.7575C30.7561 55.8625 32.2468 56.4959 32.8505 55.53L52.8505 23.53C53.2667 22.864 52.7879 22 52.0025 22ZM40.7832 24H50.1982L34.5066 49.1066L40.7832 24Z" fill="#154E84"/>
<path id="Shape_10" d="M15.1054 14.5528C15.2748 14.214 15.6211 14 15.9998 14H47.9998C48.3786 14 48.7249 14.214 48.8943 14.5528L52.8943 22.5528C53.2267 23.2177 52.7432 24 51.9998 24H11.9998C11.2564 24 10.7729 23.2177 11.1054 22.5528L15.1054 14.5528Z" fill="#154E84"/>
<path id="Shape_11" d="M16.6182 16L13.6182 22H50.3821L47.3821 16L16.6182 16Z" fill="#FFC200"/>
<path id="Shape_12" d="M24.7072 23.7071C24.3166 24.0976 23.6835 24.0976 23.2929 23.7071L15.2929 15.7071C14.663 15.0771 15.1091 14 16.0001 14H48.0001C48.891 14 49.3371 15.0771 48.7072 15.7071L40.7072 23.7071C40.3166 24.0976 39.6835 24.0976 39.2929 23.7071L32.0001 16.4142L24.7072 23.7071Z" fill="#154E84"/>
<path id="Shape_13" d="M18.4141 16L23.9998 21.5858L29.5856 16H18.4141Z" fill="white"/>
<path id="Shape_14" d="M34.4141 16L39.9998 21.5858L45.5856 16H34.4141Z" fill="white"/>
</g>
</svg>
