<svg width="64" height="64" viewBox="0 0 64 64" fill="none" xmlns="http://www.w3.org/2000/svg">
<g id="iconspace_Book_3">
<circle id="Shape" cx="32" cy="32" r="32" fill="#E6F0FC"/>
<path id="Shape_2" fill-rule="evenodd" clip-rule="evenodd" d="M12 18.6665H52.4444C53.549 18.6665 54.4444 19.5619 54.4444 20.6665V51.9998C44.4424 49.2838 42.8239 47.5554 32.2222 47.5554C21.6206 47.5554 20.002 49.2838 10 51.9998V20.6665C10 19.5619 10.8954 18.6665 12 18.6665Z" fill="white"/>
<path id="Shape_3" fill-rule="evenodd" clip-rule="evenodd" d="M54.4444 20.9998C54.4444 19.8953 53.549 18.9998 52.4444 18.9998H12C10.8954 18.9998 10 19.8953 10 20.9998V20.6665C10 19.5619 10.8954 18.6665 12 18.6665H52.4444C53.549 18.6665 54.4444 19.5619 54.4444 20.6665V20.9998ZM54.4444 48.9999V51.9999C44.4424 49.2838 42.8239 47.5554 32.2222 47.5554C21.6206 47.5554 20.002 49.2838 10 51.9999V48.9999C20.002 46.5554 21.6206 44.9999 32.2222 44.9999C42.8239 44.9999 44.4424 46.5554 54.4444 48.9999Z" fill="#52ABE2"/>
<path id="Shape_4" d="M44.1246 47.8741C40.6291 46.9408 37.381 46.5554 32.2222 46.5554C27.0634 46.5554 23.8154 46.9408 20.3198 47.8741C19.3698 48.1277 14.1763 49.7589 11 50.6787V20.6665C11 20.1142 11.4477 19.6665 12 19.6665H16.6678V17.6665H12C10.3431 17.6665 9 19.0096 9 20.6665V53.3076L10.2621 52.9649C13.1161 52.1899 19.8005 50.0828 20.8357 49.8064C24.1543 48.9204 27.2302 48.5554 32.2222 48.5554C37.2143 48.5554 40.2902 48.9204 43.6087 49.8064C44.644 50.0828 51.3284 52.1899 54.1824 52.9649L55.4444 53.3076V20.6665C55.4444 19.0096 54.1013 17.6665 52.4444 17.6665H47.8187V19.6665H52.4444C52.9967 19.6665 53.4444 20.1142 53.4444 20.6665V50.6787C50.2681 49.7589 45.0746 48.1277 44.1246 47.8741Z" fill="#154E84"/>
<path id="Shape_5" fill-rule="evenodd" clip-rule="evenodd" d="M16.6665 12C22.6279 12 27.8131 13.4815 32.2221 16.4444C36.6929 13.4815 41.8781 12 47.7776 12V43.1111C41.8978 43.1111 36.7126 44.5926 32.2221 47.5556C27.7762 44.5926 22.591 43.1111 16.6665 43.1111C16.6665 43.1111 16.6665 12 16.6665 12Z" fill="white"/>
<path id="Shape_6" fill-rule="evenodd" clip-rule="evenodd" d="M48.7776 11H47.7776C41.9282 11 36.7367 12.4169 32.2256 15.252C27.7683 12.4164 22.5743 11 16.6665 11H15.6665V27.5555V38.25V44.1111H16.6665C22.3988 44.1111 27.3906 45.5374 31.6675 48.3877L32.2193 48.7554L32.7728 48.3902C37.0959 45.5378 42.0892 44.1111 47.7776 44.1111H48.7776V21.8438V14.8711V12V11ZM17.6665 38.25V27.5556V13.0145C23.0137 13.1709 27.6724 14.5918 31.6643 17.2744L32.2182 17.6467L32.7745 17.278C36.8241 14.5942 41.4848 13.1728 46.7776 13.0148V38.25V42.1252C41.3503 42.2789 36.4931 43.692 32.2246 46.3652C27.9909 43.6906 23.1319 42.2777 17.6665 42.125V38.25Z" fill="#154E84"/>
<path id="Shape_7" d="M31.2222 16.4443V47.5554H33.2222V16.4443H31.2222Z" fill="#154E84"/>
<path id="Shape_8" d="M27.5459 21.891C25.9095 21.0567 23.6754 20.4184 20.8498 19.9888C20.3038 19.9058 19.9285 19.3958 20.0115 18.8498C20.0945 18.3038 20.6044 17.9285 21.1504 18.0115C24.1715 18.4708 26.604 19.1658 28.4544 20.1093C28.9464 20.3601 29.1419 20.9623 28.891 21.4544C28.6402 21.9464 28.0379 22.1419 27.5459 21.891Z" fill="#FFC200"/>
<path id="Shape_9" d="M36.4544 21.891C38.0908 21.0567 40.3249 20.4184 43.1505 19.9888C43.6965 19.9058 44.0719 19.3958 43.9889 18.8498C43.9058 18.3038 43.3959 17.9285 42.8499 18.0115C39.8289 18.4708 37.3963 19.1658 35.546 20.1093C35.054 20.3601 34.8585 20.9623 35.1093 21.4544C35.3602 21.9464 35.9624 22.1419 36.4544 21.891Z" fill="#FFC200"/>
<path id="Shape_10" d="M27.5459 29.891C25.9095 29.0567 23.6754 28.4184 20.8498 27.9888C20.3038 27.9058 19.9285 27.3958 20.0115 26.8498C20.0945 26.3038 20.6044 25.9285 21.1504 26.0115C24.1715 26.4708 26.604 27.1658 28.4544 28.1093C28.9464 28.3601 29.1419 28.9623 28.891 29.4544C28.6402 29.9464 28.0379 30.1419 27.5459 29.891Z" fill="#FFC200"/>
<path id="Shape_11" d="M36.4544 29.891C38.0908 29.0567 40.3249 28.4184 43.1505 27.9888C43.6965 27.9058 44.0719 27.3958 43.9889 26.8498C43.9058 26.3038 43.3959 25.9285 42.8499 26.0115C39.8289 26.4708 37.3963 27.1658 35.546 28.1093C35.054 28.3601 34.8585 28.9623 35.1093 29.4544C35.3602 29.9464 35.9624 30.1419 36.4544 29.891Z" fill="#FFC200"/>
<path id="Shape_12" d="M27.5459 37.891C25.9095 37.0567 23.6754 36.4184 20.8498 35.9888C20.3038 35.9058 19.9285 35.3958 20.0115 34.8498C20.0945 34.3038 20.6044 33.9285 21.1504 34.0115C24.1715 34.4708 26.604 35.1658 28.4544 36.1093C28.9464 36.3601 29.1419 36.9623 28.891 37.4544C28.6402 37.9464 28.0379 38.1419 27.5459 37.891Z" fill="#FFC200"/>
<path id="Shape_13" d="M36.4544 37.891C38.0908 37.0567 40.3249 36.4184 43.1505 35.9888C43.6965 35.9058 44.0719 35.3958 43.9889 34.8498C43.9058 34.3038 43.3959 33.9285 42.8499 34.0115C39.8289 34.4708 37.3963 35.1658 35.546 36.1093C35.054 36.3601 34.8585 36.9623 35.1093 37.4544C35.3602 37.9464 35.9624 38.1419 36.4544 37.891Z" fill="#FFC200"/>
</g>
</svg>
