 <svg width="64" height="64" viewBox="0 0 64 64" fill="none" xmlns="http://www.w3.org/2000/svg">
            <g id="iconspace_Presentation Chart Up">
              <circle id="Shape" cx="32" cy="32" r="32" fill="#E6F0FC" />
              <path id="Shape_2" d="M16 12H48C49.6569 12 51 13.3431 51 15V41C51 42.6569 49.6569 44 48 44H16C14.3431 44 13 42.6569 13 41V15C13 13.3431 14.3431 12 16 12Z" fill="#154E84" />
              <path id="Shape_3" d="M16 14C15.4477 14 15 14.4477 15 15V41C15 41.5523 15.4477 42 16 42H48C48.5523 42 49 41.5523 49 41V15C49 14.4477 48.5523 14 48 14H16Z" fill="white" />
              <path id="Shape_4" d="M11 39C11 38.4477 11.4477 38 12 38H52C52.5523 38 53 38.4477 53 39V41C53 42.6569 51.6569 44 50 44H14C12.3431 44 11 42.6569 11 41V39Z" fill="#154E84" />
              <path id="Shape_5" d="M13 40V41C13 41.5523 13.4477 42 14 42H50C50.5523 42 51 41.5523 51 41V40H13Z" fill="#52ABE2" />
              <path id="Shape_6" d="M14 12H50C51.6569 12 53 13.3431 53 15V17C53 17.5523 52.5523 18 52 18H12C11.4477 18 11 17.5523 11 17V15C11 13.3431 12.3431 12 14 12Z" fill="#154E84" />
              <path id="Shape_7" d="M51 16V15C51 14.4477 50.5523 14 50 14H14C13.4477 14 13 14.4477 13 15V16H51Z" fill="#52ABE2" />
              <path id="Shape_8" d="M31.9998 42C32.7432 42 33.2267 42.7823 32.8943 43.4472L28.8943 51.4472C28.7249 51.786 28.3786 52 27.9998 52H23.9998C23.2564 52 22.7729 51.2177 23.1054 50.5528L27.1054 42.5528C27.2748 42.214 27.6211 42 27.9998 42H31.9998Z" fill="#154E84" />
              <path id="Shape_9" d="M28.6182 44L25.6182 50H27.3821L30.3821 44H28.6182Z" fill="#FFC200" />
              <path id="Shape_10" d="M32.0002 42C31.2568 42 30.7733 42.7823 31.1057 43.4472L35.1057 51.4472C35.2751 51.786 35.6214 52 36.0002 52H40.0002C40.7436 52 41.2271 51.2177 40.8946 50.5528L36.8946 42.5528C36.7252 42.214 36.3789 42 36.0002 42H32.0002Z" fill="#154E84" />
              <path id="Shape_11" d="M35.3818 44L38.3818 50H36.6179L33.6179 44H35.3818Z" fill="#FFC200" />
              <path id="Shape_12" d="M32.3754 31.7809C32.7406 32.0731 33.2595 32.0731 33.6248 31.7809L43.6248 23.7809C44.056 23.4359 44.1259 22.8066 43.7809 22.3753C43.4359 21.9441 42.8066 21.8742 42.3754 22.2192L33.0001 29.7194L28.6248 26.2192C28.2686 25.9343 27.7649 25.9264 27.4001 26.2L19.4001 32.2C18.9582 32.5314 18.8687 33.1582 19.2001 33.6C19.5314 34.0419 20.1582 34.1314 20.6001 33.8L27.9803 28.2649L32.3754 31.7809Z" fill="#154E84" />
              <path id="Shape_13" d="M42 24V28C42 28.5523 42.4477 29 43 29C43.5523 29 44 28.5523 44 28V23C44 22.4477 43.5523 22 43 22H38C37.4477 22 37 22.4477 37 23C37 23.5523 37.4477 24 38 24H42Z" fill="#154E84" />
            </g>
          </svg>